<svg width="393" height="542" viewBox="0 0 393 542" fill="none" xmlns="http://www.w3.org/2000/svg">
<path d="M111.339 444.173C111.339 482.653 80.3707 513.847 42.1695 513.847C3.96831 513.847 -26.9999 482.653 -26.9999 444.173C-26.9999 405.693 3.96831 374.499 42.1695 374.499C80.3707 374.499 111.339 405.693 111.339 444.173Z" fill="black"/>
<path fill-rule="evenodd" clip-rule="evenodd" d="M42.1695 470.726C79.8061 470.726 110.329 439.991 110.329 402.062C110.329 364.133 79.8061 333.397 42.1695 333.397C4.5329 333.397 -25.9901 364.133 -25.9901 402.062C-25.9901 439.991 4.5329 470.726 42.1695 470.726ZM42.1695 471.736C80.3707 471.736 111.339 440.542 111.339 402.062C111.339 363.582 80.3707 332.388 42.1695 332.388C3.96831 332.388 -26.9999 363.582 -26.9999 402.062C-26.9999 440.542 3.96831 471.736 42.1695 471.736Z" fill="black"/>
<path d="M231.502 461.339C231.502 505.396 195.787 541.111 151.73 541.111C107.673 541.111 71.9578 505.396 71.9578 461.339C71.9578 417.282 107.673 381.567 151.73 381.567C195.787 381.567 231.502 417.282 231.502 461.339Z" fill="black"/>
<path fill-rule="evenodd" clip-rule="evenodd" d="M151.73 497.99C195.229 497.99 230.492 462.727 230.492 419.228C230.492 375.729 195.229 340.466 151.73 340.466C108.231 340.466 72.9675 375.729 72.9675 419.228C72.9675 462.727 108.231 497.99 151.73 497.99ZM151.73 499C195.787 499 231.502 463.285 231.502 419.228C231.502 375.171 195.787 339.456 151.73 339.456C107.673 339.456 71.9578 375.171 71.9578 419.228C71.9578 463.285 107.673 499 151.73 499Z" fill="black"/>
<path d="M299.157 452.756C299.157 480.361 276.778 502.739 249.173 502.739C221.568 502.739 199.189 480.361 199.189 452.756C199.189 425.15 221.568 402.772 249.173 402.772C276.778 402.772 299.157 425.15 299.157 452.756Z" fill="black"/>
<path fill-rule="evenodd" clip-rule="evenodd" d="M249.173 459.619C276.22 459.619 298.147 437.692 298.147 410.645C298.147 383.597 276.22 361.671 249.173 361.671C222.125 361.671 200.199 383.597 200.199 410.645C200.199 437.692 222.125 459.619 249.173 459.619ZM249.173 460.629C276.778 460.629 299.157 438.25 299.157 410.645C299.157 383.04 276.778 360.661 249.173 360.661C221.568 360.661 199.189 383.04 199.189 410.645C199.189 438.25 221.568 460.629 249.173 460.629Z" fill="black"/>
<path d="M413.261 402.267C413.261 446.045 377.772 481.534 333.994 481.534C290.216 481.534 254.727 446.045 254.727 402.267C254.727 358.489 290.216 323 333.994 323C377.772 323 413.261 358.489 413.261 402.267Z" fill="black"/>
<path fill-rule="evenodd" clip-rule="evenodd" d="M333.994 438.414C377.214 438.414 412.251 403.377 412.251 360.156C412.251 316.936 377.214 281.899 333.994 281.899C290.773 281.899 255.736 316.936 255.736 360.156C255.736 403.377 290.773 438.414 333.994 438.414ZM333.994 439.423C377.772 439.423 413.261 403.934 413.261 360.156C413.261 316.378 377.772 280.889 333.994 280.889C290.216 280.889 254.727 316.378 254.727 360.156C254.727 403.934 290.216 439.423 333.994 439.423Z" fill="black"/>
<path d="M-9 -42H396V433H-9V-42Z" fill="black"/>
</svg>
