<svg width="19" height="19" viewBox="0 0 19 19" fill="none" xmlns="http://www.w3.org/2000/svg">
<path d="M4.15625 0C4.31372 0 4.46475 0.0625556 4.57609 0.173905C4.68744 0.285255 4.75 0.436278 4.75 0.59375V1.1875H14.25V0.59375C14.25 0.436278 14.3126 0.285255 14.4239 0.173905C14.5353 0.0625556 14.6863 0 14.8438 0C15.0012 0 15.1522 0.0625556 15.2636 0.173905C15.3749 0.285255 15.4375 0.436278 15.4375 0.59375V1.1875H16.625C17.2549 1.1875 17.859 1.43772 18.3044 1.88312C18.7498 2.32852 19 2.93261 19 3.5625V16.625C19 17.2549 18.7498 17.859 18.3044 18.3044C17.859 18.7498 17.2549 19 16.625 19H2.375C1.74511 19 1.14102 18.7498 0.695621 18.3044C0.250223 17.859 0 17.2549 0 16.625V3.5625C0 2.93261 0.250223 2.32852 0.695621 1.88312C1.14102 1.43772 1.74511 1.1875 2.375 1.1875H3.5625V0.59375C3.5625 0.436278 3.62506 0.285255 3.73641 0.173905C3.84776 0.0625556 3.99878 0 4.15625 0ZM2.375 2.375C2.06006 2.375 1.75801 2.50011 1.53531 2.72281C1.31261 2.94551 1.1875 3.24756 1.1875 3.5625V4.75H17.8125V3.5625C17.8125 3.24756 17.6874 2.94551 17.4647 2.72281C17.242 2.50011 16.9399 2.375 16.625 2.375H2.375ZM17.8125 5.9375H1.1875V16.625C1.1875 16.9399 1.31261 17.242 1.53531 17.4647C1.75801 17.6874 2.06006 17.8125 2.375 17.8125H16.625C16.9399 17.8125 17.242 17.6874 17.4647 17.4647C17.6874 17.242 17.8125 16.9399 17.8125 16.625V5.9375Z" fill="black"/>
<path d="M8.3125 9.5C8.62744 9.5 8.92949 9.37489 9.15219 9.15219C9.37489 8.92949 9.5 8.62744 9.5 8.3125C9.5 7.99756 9.37489 7.69551 9.15219 7.47281C8.92949 7.25011 8.62744 7.125 8.3125 7.125C7.99756 7.125 7.69551 7.25011 7.47281 7.47281C7.25011 7.69551 7.125 7.99756 7.125 8.3125C7.125 8.62744 7.25011 8.92949 7.47281 9.15219C7.69551 9.37489 7.99756 9.5 8.3125 9.5ZM11.875 9.5C12.1899 9.5 12.492 9.37489 12.7147 9.15219C12.9374 8.92949 13.0625 8.62744 13.0625 8.3125C13.0625 7.99756 12.9374 7.69551 12.7147 7.47281C12.492 7.25011 12.1899 7.125 11.875 7.125C11.5601 7.125 11.258 7.25011 11.0353 7.47281C10.8126 7.69551 10.6875 7.99756 10.6875 8.3125C10.6875 8.62744 10.8126 8.92949 11.0353 9.15219C11.258 9.37489 11.5601 9.5 11.875 9.5ZM15.4375 9.5C15.7524 9.5 16.0545 9.37489 16.2772 9.15219C16.4999 8.92949 16.625 8.62744 16.625 8.3125C16.625 7.99756 16.4999 7.69551 16.2772 7.47281C16.0545 7.25011 15.7524 7.125 15.4375 7.125C15.1226 7.125 14.8205 7.25011 14.5978 7.47281C14.3751 7.69551 14.25 7.99756 14.25 8.3125C14.25 8.62744 14.3751 8.92949 14.5978 9.15219C14.8205 9.37489 15.1226 9.5 15.4375 9.5ZM4.75 13.0625C5.06494 13.0625 5.36699 12.9374 5.58969 12.7147C5.81239 12.492 5.9375 12.1899 5.9375 11.875C5.9375 11.5601 5.81239 11.258 5.58969 11.0353C5.36699 10.8126 5.06494 10.6875 4.75 10.6875C4.43506 10.6875 4.13301 10.8126 3.91031 11.0353C3.68761 11.258 3.5625 11.5601 3.5625 11.875C3.5625 12.1899 3.68761 12.492 3.91031 12.7147C4.13301 12.9374 4.43506 13.0625 4.75 13.0625ZM8.3125 13.0625C8.62744 13.0625 8.92949 12.9374 9.15219 12.7147C9.37489 12.492 9.5 12.1899 9.5 11.875C9.5 11.5601 9.37489 11.258 9.15219 11.0353C8.92949 10.8126 8.62744 10.6875 8.3125 10.6875C7.99756 10.6875 7.69551 10.8126 7.47281 11.0353C7.25011 11.258 7.125 11.5601 7.125 11.875C7.125 12.1899 7.25011 12.492 7.47281 12.7147C7.69551 12.9374 7.99756 13.0625 8.3125 13.0625ZM11.875 13.0625C12.1899 13.0625 12.492 12.9374 12.7147 12.7147C12.9374 12.492 13.0625 12.1899 13.0625 11.875C13.0625 11.5601 12.9374 11.258 12.7147 11.0353C12.492 10.8126 12.1899 10.6875 11.875 10.6875C11.5601 10.6875 11.258 10.8126 11.0353 11.0353C10.8126 11.258 10.6875 11.5601 10.6875 11.875C10.6875 12.1899 10.8126 12.492 11.0353 12.7147C11.258 12.9374 11.5601 13.0625 11.875 13.0625ZM15.4375 13.0625C15.7524 13.0625 16.0545 12.9374 16.2772 12.7147C16.4999 12.492 16.625 12.1899 16.625 11.875C16.625 11.5601 16.4999 11.258 16.2772 11.0353C16.0545 10.8126 15.7524 10.6875 15.4375 10.6875C15.1226 10.6875 14.8205 10.8126 14.5978 11.0353C14.3751 11.258 14.25 11.5601 14.25 11.875C14.25 12.1899 14.3751 12.492 14.5978 12.7147C14.8205 12.9374 15.1226 13.0625 15.4375 13.0625ZM4.75 16.625C5.06494 16.625 5.36699 16.4999 5.58969 16.2772C5.81239 16.0545 5.9375 15.7524 5.9375 15.4375C5.9375 15.1226 5.81239 14.8205 5.58969 14.5978C5.36699 14.3751 5.06494 14.25 4.75 14.25C4.43506 14.25 4.13301 14.3751 3.91031 14.5978C3.68761 14.8205 3.5625 15.1226 3.5625 15.4375C3.5625 15.7524 3.68761 16.0545 3.91031 16.2772C4.13301 16.4999 4.43506 16.625 4.75 16.625ZM8.3125 16.625C8.62744 16.625 8.92949 16.4999 9.15219 16.2772C9.37489 16.0545 9.5 15.7524 9.5 15.4375C9.5 15.1226 9.37489 14.8205 9.15219 14.5978C8.92949 14.3751 8.62744 14.25 8.3125 14.25C7.99756 14.25 7.69551 14.3751 7.47281 14.5978C7.25011 14.8205 7.125 15.1226 7.125 15.4375C7.125 15.7524 7.25011 16.0545 7.47281 16.2772C7.69551 16.4999 7.99756 16.625 8.3125 16.625ZM11.875 16.625C12.1899 16.625 12.492 16.4999 12.7147 16.2772C12.9374 16.0545 13.0625 15.7524 13.0625 15.4375C13.0625 15.1226 12.9374 14.8205 12.7147 14.5978C12.492 14.3751 12.1899 14.25 11.875 14.25C11.5601 14.25 11.258 14.3751 11.0353 14.5978C10.8126 14.8205 10.6875 15.1226 10.6875 15.4375C10.6875 15.7524 10.8126 16.0545 11.0353 16.2772C11.258 16.4999 11.5601 16.625 11.875 16.625Z" fill="black"/>
</svg>
