<svg width="19" height="19" viewBox="0 0 19 19" fill="none" xmlns="http://www.w3.org/2000/svg">
<rect x="1" y="5" width="17" height="13" fill="black"/>
<path d="M4.1875 13.375C4.50244 13.375 4.80449 13.2499 5.02719 13.0272C5.24989 12.8045 5.375 12.5024 5.375 12.1875C5.375 11.8726 5.24989 11.5705 5.02719 11.3478C4.80449 11.1251 4.50244 11 4.1875 11C3.87256 11 3.57051 11.1251 3.34781 11.3478C3.12511 11.5705 3 11.8726 3 12.1875C3 12.5024 3.12511 12.8045 3.34781 13.0272C3.57051 13.2499 3.87256 13.375 4.1875 13.375ZM7.75 13.375C8.06494 13.375 8.36699 13.2499 8.58969 13.0272C8.81239 12.8045 8.9375 12.5024 8.9375 12.1875C8.9375 11.8726 8.81239 11.5705 8.58969 11.3478C8.36699 11.1251 8.06494 11 7.75 11C7.43506 11 7.13301 11.1251 6.91031 11.3478C6.68761 11.5705 6.5625 11.8726 6.5625 12.1875C6.5625 12.5024 6.68761 12.8045 6.91031 13.0272C7.13301 13.2499 7.43506 13.375 7.75 13.375ZM11.3125 13.375C11.6274 13.375 11.9295 13.2499 12.1522 13.0272C12.3749 12.8045 12.5 12.5024 12.5 12.1875C12.5 11.8726 12.3749 11.5705 12.1522 11.3478C11.9295 11.1251 11.6274 11 11.3125 11C10.9976 11 10.6955 11.1251 10.4728 11.3478C10.2501 11.5705 10.125 11.8726 10.125 12.1875C10.125 12.5024 10.2501 12.8045 10.4728 13.0272C10.6955 13.2499 10.9976 13.375 11.3125 13.375ZM14.875 13.375C15.1899 13.375 15.492 13.2499 15.7147 13.0272C15.9374 12.8045 16.0625 12.5024 16.0625 12.1875C16.0625 11.8726 15.9374 11.5705 15.7147 11.3478C15.492 11.1251 15.1899 11 14.875 11C14.5601 11 14.258 11.1251 14.0353 11.3478C13.8126 11.5705 13.6875 11.8726 13.6875 12.1875C13.6875 12.5024 13.8126 12.8045 14.0353 13.0272C14.258 13.2499 14.5601 13.375 14.875 13.375Z" fill="white"/>
<path d="M4.15625 0C4.31372 0 4.46475 0.0625556 4.57609 0.173905C4.68744 0.285255 4.75 0.436278 4.75 0.59375V1.1875H14.25V0.59375C14.25 0.436278 14.3126 0.285255 14.4239 0.173905C14.5353 0.0625556 14.6863 0 14.8438 0C15.0012 0 15.1522 0.0625556 15.2636 0.173905C15.3749 0.285255 15.4375 0.436278 15.4375 0.59375V1.1875H16.625C17.2549 1.1875 17.859 1.43772 18.3044 1.88312C18.7498 2.32852 19 2.93261 19 3.5625V16.625C19 17.2549 18.7498 17.859 18.3044 18.3044C17.859 18.7498 17.2549 19 16.625 19H2.375C1.74511 19 1.14102 18.7498 0.695621 18.3044C0.250223 17.859 0 17.2549 0 16.625V3.5625C0 2.93261 0.250223 2.32852 0.695621 1.88312C1.14102 1.43772 1.74511 1.1875 2.375 1.1875H3.5625V0.59375C3.5625 0.436278 3.62506 0.285255 3.73641 0.173905C3.84776 0.0625556 3.99878 0 4.15625 0ZM2.375 2.375C2.06006 2.375 1.75801 2.50011 1.53531 2.72281C1.31261 2.94551 1.1875 3.24756 1.1875 3.5625V4.75H17.8125V3.5625C17.8125 3.24756 17.6874 2.94551 17.4647 2.72281C17.242 2.50011 16.9399 2.375 16.625 2.375H2.375ZM17.8125 5.9375H1.1875V16.625C1.1875 16.9399 1.31261 17.242 1.53531 17.4647C1.75801 17.6874 2.06006 17.8125 2.375 17.8125H16.625C16.9399 17.8125 17.242 17.6874 17.4647 17.4647C17.6874 17.242 17.8125 16.9399 17.8125 16.625V5.9375Z" fill="black"/>
</svg>
