<svg width="27" height="27" viewBox="0 0 27 27" fill="none" xmlns="http://www.w3.org/2000/svg">
<rect x="5" y="5" width="17" height="13" fill="black"/>
<g filter="url(#filter0_d_145_2026)">
<path d="M8.15625 0C8.31372 0 8.46475 0.0625556 8.57609 0.173905C8.68744 0.285255 8.75 0.436278 8.75 0.59375V1.1875H18.25V0.59375C18.25 0.436278 18.3126 0.285255 18.4239 0.173905C18.5353 0.0625556 18.6863 0 18.8438 0C19.0012 0 19.1522 0.0625556 19.2636 0.173905C19.3749 0.285255 19.4375 0.436278 19.4375 0.59375V1.1875H20.625C21.2549 1.1875 21.859 1.43772 22.3044 1.88312C22.7498 2.32852 23 2.93261 23 3.5625V16.625C23 17.2549 22.7498 17.859 22.3044 18.3044C21.859 18.7498 21.2549 19 20.625 19H6.375C5.74511 19 5.14102 18.7498 4.69562 18.3044C4.25022 17.859 4 17.2549 4 16.625V3.5625C4 2.93261 4.25022 2.32852 4.69562 1.88312C5.14102 1.43772 5.74511 1.1875 6.375 1.1875H7.5625V0.59375C7.5625 0.436278 7.62506 0.285255 7.73641 0.173905C7.84776 0.0625556 7.99878 0 8.15625 0ZM6.375 2.375C6.06006 2.375 5.75801 2.50011 5.53531 2.72281C5.31261 2.94551 5.1875 3.24756 5.1875 3.5625V4.75H21.8125V3.5625C21.8125 3.24756 21.6874 2.94551 21.4647 2.72281C21.242 2.50011 20.9399 2.375 20.625 2.375H6.375ZM21.8125 5.9375H5.1875V16.625C5.1875 16.9399 5.31261 17.242 5.53531 17.4647C5.75801 17.6874 6.06006 17.8125 6.375 17.8125H20.625C20.9399 17.8125 21.242 17.6874 21.4647 17.4647C21.6874 17.242 21.8125 16.9399 21.8125 16.625V5.9375Z" fill="black"/>
<path d="M12.3125 9.5C12.6274 9.5 12.9295 9.37489 13.1522 9.15219C13.3749 8.92949 13.5 8.62744 13.5 8.3125C13.5 7.99756 13.3749 7.69551 13.1522 7.47281C12.9295 7.25011 12.6274 7.125 12.3125 7.125C11.9976 7.125 11.6955 7.25011 11.4728 7.47281C11.2501 7.69551 11.125 7.99756 11.125 8.3125C11.125 8.62744 11.2501 8.92949 11.4728 9.15219C11.6955 9.37489 11.9976 9.5 12.3125 9.5ZM15.875 9.5C16.1899 9.5 16.492 9.37489 16.7147 9.15219C16.9374 8.92949 17.0625 8.62744 17.0625 8.3125C17.0625 7.99756 16.9374 7.69551 16.7147 7.47281C16.492 7.25011 16.1899 7.125 15.875 7.125C15.5601 7.125 15.258 7.25011 15.0353 7.47281C14.8126 7.69551 14.6875 7.99756 14.6875 8.3125C14.6875 8.62744 14.8126 8.92949 15.0353 9.15219C15.258 9.37489 15.5601 9.5 15.875 9.5ZM19.4375 9.5C19.7524 9.5 20.0545 9.37489 20.2772 9.15219C20.4999 8.92949 20.625 8.62744 20.625 8.3125C20.625 7.99756 20.4999 7.69551 20.2772 7.47281C20.0545 7.25011 19.7524 7.125 19.4375 7.125C19.1226 7.125 18.8205 7.25011 18.5978 7.47281C18.3751 7.69551 18.25 7.99756 18.25 8.3125C18.25 8.62744 18.3751 8.92949 18.5978 9.15219C18.8205 9.37489 19.1226 9.5 19.4375 9.5ZM8.75 13.0625C9.06494 13.0625 9.36699 12.9374 9.58969 12.7147C9.81239 12.492 9.9375 12.1899 9.9375 11.875C9.9375 11.5601 9.81239 11.258 9.58969 11.0353C9.36699 10.8126 9.06494 10.6875 8.75 10.6875C8.43506 10.6875 8.13301 10.8126 7.91031 11.0353C7.68761 11.258 7.5625 11.5601 7.5625 11.875C7.5625 12.1899 7.68761 12.492 7.91031 12.7147C8.13301 12.9374 8.43506 13.0625 8.75 13.0625ZM12.3125 13.0625C12.6274 13.0625 12.9295 12.9374 13.1522 12.7147C13.3749 12.492 13.5 12.1899 13.5 11.875C13.5 11.5601 13.3749 11.258 13.1522 11.0353C12.9295 10.8126 12.6274 10.6875 12.3125 10.6875C11.9976 10.6875 11.6955 10.8126 11.4728 11.0353C11.2501 11.258 11.125 11.5601 11.125 11.875C11.125 12.1899 11.2501 12.492 11.4728 12.7147C11.6955 12.9374 11.9976 13.0625 12.3125 13.0625ZM15.875 13.0625C16.1899 13.0625 16.492 12.9374 16.7147 12.7147C16.9374 12.492 17.0625 12.1899 17.0625 11.875C17.0625 11.5601 16.9374 11.258 16.7147 11.0353C16.492 10.8126 16.1899 10.6875 15.875 10.6875C15.5601 10.6875 15.258 10.8126 15.0353 11.0353C14.8126 11.258 14.6875 11.5601 14.6875 11.875C14.6875 12.1899 14.8126 12.492 15.0353 12.7147C15.258 12.9374 15.5601 13.0625 15.875 13.0625ZM19.4375 13.0625C19.7524 13.0625 20.0545 12.9374 20.2772 12.7147C20.4999 12.492 20.625 12.1899 20.625 11.875C20.625 11.5601 20.4999 11.258 20.2772 11.0353C20.0545 10.8126 19.7524 10.6875 19.4375 10.6875C19.1226 10.6875 18.8205 10.8126 18.5978 11.0353C18.3751 11.258 18.25 11.5601 18.25 11.875C18.25 12.1899 18.3751 12.492 18.5978 12.7147C18.8205 12.9374 19.1226 13.0625 19.4375 13.0625ZM8.75 16.625C9.06494 16.625 9.36699 16.4999 9.58969 16.2772C9.81239 16.0545 9.9375 15.7524 9.9375 15.4375C9.9375 15.1226 9.81239 14.8205 9.58969 14.5978C9.36699 14.3751 9.06494 14.25 8.75 14.25C8.43506 14.25 8.13301 14.3751 7.91031 14.5978C7.68761 14.8205 7.5625 15.1226 7.5625 15.4375C7.5625 15.7524 7.68761 16.0545 7.91031 16.2772C8.13301 16.4999 8.43506 16.625 8.75 16.625ZM12.3125 16.625C12.6274 16.625 12.9295 16.4999 13.1522 16.2772C13.3749 16.0545 13.5 15.7524 13.5 15.4375C13.5 15.1226 13.3749 14.8205 13.1522 14.5978C12.9295 14.3751 12.6274 14.25 12.3125 14.25C11.9976 14.25 11.6955 14.3751 11.4728 14.5978C11.2501 14.8205 11.125 15.1226 11.125 15.4375C11.125 15.7524 11.2501 16.0545 11.4728 16.2772C11.6955 16.4999 11.9976 16.625 12.3125 16.625ZM15.875 16.625C16.1899 16.625 16.492 16.4999 16.7147 16.2772C16.9374 16.0545 17.0625 15.7524 17.0625 15.4375C17.0625 15.1226 16.9374 14.8205 16.7147 14.5978C16.492 14.3751 16.1899 14.25 15.875 14.25C15.5601 14.25 15.258 14.3751 15.0353 14.5978C14.8126 14.8205 14.6875 15.1226 14.6875 15.4375C14.6875 15.7524 14.8126 16.0545 15.0353 16.2772C15.258 16.4999 15.5601 16.625 15.875 16.625Z" fill="white"/>
</g>
<defs>
<filter id="filter0_d_145_2026" x="0" y="0" width="27" height="27" filterUnits="userSpaceOnUse" color-interpolation-filters="sRGB">
<feFlood flood-opacity="0" result="BackgroundImageFix"/>
<feColorMatrix in="SourceAlpha" type="matrix" values="0 0 0 0 0 0 0 0 0 0 0 0 0 0 0 0 0 0 127 0" result="hardAlpha"/>
<feOffset dy="4"/>
<feGaussianBlur stdDeviation="2"/>
<feComposite in2="hardAlpha" operator="out"/>
<feColorMatrix type="matrix" values="0 0 0 0 0 0 0 0 0 0 0 0 0 0 0 0 0 0 0.25 0"/>
<feBlend mode="normal" in2="BackgroundImageFix" result="effect1_dropShadow_145_2026"/>
<feBlend mode="normal" in="SourceGraphic" in2="effect1_dropShadow_145_2026" result="shape"/>
</filter>
</defs>
</svg>
