<svg width="28" height="28" viewBox="0 0 28 28" fill="none" xmlns="http://www.w3.org/2000/svg">
<path d="M6.125 0C6.35706 0 6.57962 0.0921872 6.74372 0.256282C6.90781 0.420376 7 0.642936 7 0.875V1.75H21V0.875C21 0.642936 21.0922 0.420376 21.2563 0.256282C21.4204 0.0921872 21.6429 0 21.875 0C22.1071 0 22.3296 0.0921872 22.4937 0.256282C22.6578 0.420376 22.75 0.642936 22.75 0.875V1.75H24.5C25.4283 1.75 26.3185 2.11875 26.9749 2.77513C27.6313 3.4315 28 4.32174 28 5.25V24.5C28 25.4283 27.6313 26.3185 26.9749 26.9749C26.3185 27.6313 25.4283 28 24.5 28H3.5C2.57174 28 1.6815 27.6313 1.02513 26.9749C0.368749 26.3185 0 25.4283 0 24.5V5.25C0 4.32174 0.368749 3.4315 1.02513 2.77513C1.6815 2.11875 2.57174 1.75 3.5 1.75H5.25V0.875C5.25 0.642936 5.34219 0.420376 5.50628 0.256282C5.67038 0.0921872 5.89294 0 6.125 0ZM3.5 3.5C3.03587 3.5 2.59075 3.68437 2.26256 4.01256C1.93437 4.34075 1.75 4.78587 1.75 5.25V7H26.25V5.25C26.25 4.78587 26.0656 4.34075 25.7374 4.01256C25.4092 3.68437 24.9641 3.5 24.5 3.5H3.5ZM26.25 8.75H1.75V24.5C1.75 24.9641 1.93437 25.4092 2.26256 25.7374C2.59075 26.0656 3.03587 26.25 3.5 26.25H24.5C24.9641 26.25 25.4092 26.0656 25.7374 25.7374C26.0656 25.4092 26.25 24.9641 26.25 24.5V8.75Z" fill="black"/>
<path d="M12.25 14C12.7141 14 13.1592 13.8156 13.4874 13.4874C13.8156 13.1592 14 12.7141 14 12.25C14 11.7859 13.8156 11.3408 13.4874 11.0126C13.1592 10.6844 12.7141 10.5 12.25 10.5C11.7859 10.5 11.3408 10.6844 11.0126 11.0126C10.6844 11.3408 10.5 11.7859 10.5 12.25C10.5 12.7141 10.6844 13.1592 11.0126 13.4874C11.3408 13.8156 11.7859 14 12.25 14ZM17.5 14C17.9641 14 18.4092 13.8156 18.7374 13.4874C19.0656 13.1592 19.25 12.7141 19.25 12.25C19.25 11.7859 19.0656 11.3408 18.7374 11.0126C18.4092 10.6844 17.9641 10.5 17.5 10.5C17.0359 10.5 16.5908 10.6844 16.2626 11.0126C15.9344 11.3408 15.75 11.7859 15.75 12.25C15.75 12.7141 15.9344 13.1592 16.2626 13.4874C16.5908 13.8156 17.0359 14 17.5 14ZM22.75 14C23.2141 14 23.6593 13.8156 23.9874 13.4874C24.3156 13.1592 24.5 12.7141 24.5 12.25C24.5 11.7859 24.3156 11.3408 23.9874 11.0126C23.6593 10.6844 23.2141 10.5 22.75 10.5C22.2859 10.5 21.8408 10.6844 21.5126 11.0126C21.1844 11.3408 21 11.7859 21 12.25C21 12.7141 21.1844 13.1592 21.5126 13.4874C21.8408 13.8156 22.2859 14 22.75 14ZM7 19.25C7.46413 19.25 7.90925 19.0656 8.23744 18.7374C8.56562 18.4092 8.75 17.9641 8.75 17.5C8.75 17.0359 8.56562 16.5908 8.23744 16.2626C7.90925 15.9344 7.46413 15.75 7 15.75C6.53587 15.75 6.09075 15.9344 5.76256 16.2626C5.43437 16.5908 5.25 17.0359 5.25 17.5C5.25 17.9641 5.43437 18.4092 5.76256 18.7374C6.09075 19.0656 6.53587 19.25 7 19.25ZM12.25 19.25C12.7141 19.25 13.1592 19.0656 13.4874 18.7374C13.8156 18.4092 14 17.9641 14 17.5C14 17.0359 13.8156 16.5908 13.4874 16.2626C13.1592 15.9344 12.7141 15.75 12.25 15.75C11.7859 15.75 11.3408 15.9344 11.0126 16.2626C10.6844 16.5908 10.5 17.0359 10.5 17.5C10.5 17.9641 10.6844 18.4092 11.0126 18.7374C11.3408 19.0656 11.7859 19.25 12.25 19.25ZM17.5 19.25C17.9641 19.25 18.4092 19.0656 18.7374 18.7374C19.0656 18.4092 19.25 17.9641 19.25 17.5C19.25 17.0359 19.0656 16.5908 18.7374 16.2626C18.4092 15.9344 17.9641 15.75 17.5 15.75C17.0359 15.75 16.5908 15.9344 16.2626 16.2626C15.9344 16.5908 15.75 17.0359 15.75 17.5C15.75 17.9641 15.9344 18.4092 16.2626 18.7374C16.5908 19.0656 17.0359 19.25 17.5 19.25ZM22.75 19.25C23.2141 19.25 23.6593 19.0656 23.9874 18.7374C24.3156 18.4092 24.5 17.9641 24.5 17.5C24.5 17.0359 24.3156 16.5908 23.9874 16.2626C23.6593 15.9344 23.2141 15.75 22.75 15.75C22.2859 15.75 21.8408 15.9344 21.5126 16.2626C21.1844 16.5908 21 17.0359 21 17.5C21 17.9641 21.1844 18.4092 21.5126 18.7374C21.8408 19.0656 22.2859 19.25 22.75 19.25ZM7 24.5C7.46413 24.5 7.90925 24.3156 8.23744 23.9874C8.56562 23.6592 8.75 23.2141 8.75 22.75C8.75 22.2859 8.56562 21.8408 8.23744 21.5126C7.90925 21.1844 7.46413 21 7 21C6.53587 21 6.09075 21.1844 5.76256 21.5126C5.43437 21.8408 5.25 22.2859 5.25 22.75C5.25 23.2141 5.43437 23.6592 5.76256 23.9874C6.09075 24.3156 6.53587 24.5 7 24.5ZM12.25 24.5C12.7141 24.5 13.1592 24.3156 13.4874 23.9874C13.8156 23.6592 14 23.2141 14 22.75C14 22.2859 13.8156 21.8408 13.4874 21.5126C13.1592 21.1844 12.7141 21 12.25 21C11.7859 21 11.3408 21.1844 11.0126 21.5126C10.6844 21.8408 10.5 22.2859 10.5 22.75C10.5 23.2141 10.6844 23.6592 11.0126 23.9874C11.3408 24.3156 11.7859 24.5 12.25 24.5ZM17.5 24.5C17.9641 24.5 18.4092 24.3156 18.7374 23.9874C19.0656 23.6592 19.25 23.2141 19.25 22.75C19.25 22.2859 19.0656 21.8408 18.7374 21.5126C18.4092 21.1844 17.9641 21 17.5 21C17.0359 21 16.5908 21.1844 16.2626 21.5126C15.9344 21.8408 15.75 22.2859 15.75 22.75C15.75 23.2141 15.9344 23.6592 16.2626 23.9874C16.5908 24.3156 17.0359 24.5 17.5 24.5Z" fill="black"/>
</svg>
