<svg width="29" height="29" viewBox="0 0 29 29" fill="none" xmlns="http://www.w3.org/2000/svg">
<rect x="1.52637" y="7.63158" width="25.9474" height="19.8421" fill="black"/>
<path d="M6.34375 0C6.5841 0 6.81461 0.0954797 6.98457 0.265435C7.15452 0.435389 7.25 0.665898 7.25 0.90625V1.8125H21.75V0.90625C21.75 0.665898 21.8455 0.435389 22.0154 0.265435C22.1854 0.0954797 22.4159 0 22.6562 0C22.8966 0 23.1271 0.0954797 23.2971 0.265435C23.467 0.435389 23.5625 0.665898 23.5625 0.90625V1.8125H25.375C26.3364 1.8125 27.2584 2.19442 27.9383 2.87424C28.6181 3.55406 29 4.47609 29 5.4375V25.375C29 26.3364 28.6181 27.2584 27.9383 27.9383C27.2584 28.6181 26.3364 29 25.375 29H3.625C2.66359 29 1.74156 28.6181 1.06174 27.9383C0.381919 27.2584 0 26.3364 0 25.375V5.4375C0 4.47609 0.381919 3.55406 1.06174 2.87424C1.74156 2.19442 2.66359 1.8125 3.625 1.8125H5.4375V0.90625C5.4375 0.665898 5.53298 0.435389 5.70293 0.265435C5.87289 0.0954797 6.1034 0 6.34375 0ZM3.625 3.625C3.14429 3.625 2.68328 3.81596 2.34337 4.15587C2.00346 4.49578 1.8125 4.9568 1.8125 5.4375V7.25H27.1875V5.4375C27.1875 4.9568 26.9965 4.49578 26.6566 4.15587C26.3167 3.81596 25.8557 3.625 25.375 3.625H3.625ZM27.1875 9.0625H1.8125V25.375C1.8125 25.8557 2.00346 26.3167 2.34337 26.6566C2.68328 26.9965 3.14429 27.1875 3.625 27.1875H25.375C25.8557 27.1875 26.3167 26.9965 26.6566 26.6566C26.9965 26.3167 27.1875 25.8557 27.1875 25.375V9.0625Z" fill="black"/>
<path d="M12.6875 14.5C13.1682 14.5 13.6292 14.309 13.9691 13.9691C14.309 13.6292 14.5 13.1682 14.5 12.6875C14.5 12.2068 14.309 11.7458 13.9691 11.4059C13.6292 11.066 13.1682 10.875 12.6875 10.875C12.2068 10.875 11.7458 11.066 11.4059 11.4059C11.066 11.7458 10.875 12.2068 10.875 12.6875C10.875 13.1682 11.066 13.6292 11.4059 13.9691C11.7458 14.309 12.2068 14.5 12.6875 14.5ZM18.125 14.5C18.6057 14.5 19.0667 14.309 19.4066 13.9691C19.7465 13.6292 19.9375 13.1682 19.9375 12.6875C19.9375 12.2068 19.7465 11.7458 19.4066 11.4059C19.0667 11.066 18.6057 10.875 18.125 10.875C17.6443 10.875 17.1833 11.066 16.8434 11.4059C16.5035 11.7458 16.3125 12.2068 16.3125 12.6875C16.3125 13.1682 16.5035 13.6292 16.8434 13.9691C17.1833 14.309 17.6443 14.5 18.125 14.5ZM23.5625 14.5C24.0432 14.5 24.5042 14.309 24.8441 13.9691C25.184 13.6292 25.375 13.1682 25.375 12.6875C25.375 12.2068 25.184 11.7458 24.8441 11.4059C24.5042 11.066 24.0432 10.875 23.5625 10.875C23.0818 10.875 22.6208 11.066 22.2809 11.4059C21.941 11.7458 21.75 12.2068 21.75 12.6875C21.75 13.1682 21.941 13.6292 22.2809 13.9691C22.6208 14.309 23.0818 14.5 23.5625 14.5ZM7.25 19.9375C7.73071 19.9375 8.19172 19.7465 8.53163 19.4066C8.87154 19.0667 9.0625 18.6057 9.0625 18.125C9.0625 17.6443 8.87154 17.1833 8.53163 16.8434C8.19172 16.5035 7.73071 16.3125 7.25 16.3125C6.7693 16.3125 6.30828 16.5035 5.96837 16.8434C5.62846 17.1833 5.4375 17.6443 5.4375 18.125C5.4375 18.6057 5.62846 19.0667 5.96837 19.4066C6.30828 19.7465 6.7693 19.9375 7.25 19.9375ZM12.6875 19.9375C13.1682 19.9375 13.6292 19.7465 13.9691 19.4066C14.309 19.0667 14.5 18.6057 14.5 18.125C14.5 17.6443 14.309 17.1833 13.9691 16.8434C13.6292 16.5035 13.1682 16.3125 12.6875 16.3125C12.2068 16.3125 11.7458 16.5035 11.4059 16.8434C11.066 17.1833 10.875 17.6443 10.875 18.125C10.875 18.6057 11.066 19.0667 11.4059 19.4066C11.7458 19.7465 12.2068 19.9375 12.6875 19.9375ZM18.125 19.9375C18.6057 19.9375 19.0667 19.7465 19.4066 19.4066C19.7465 19.0667 19.9375 18.6057 19.9375 18.125C19.9375 17.6443 19.7465 17.1833 19.4066 16.8434C19.0667 16.5035 18.6057 16.3125 18.125 16.3125C17.6443 16.3125 17.1833 16.5035 16.8434 16.8434C16.5035 17.1833 16.3125 17.6443 16.3125 18.125C16.3125 18.6057 16.5035 19.0667 16.8434 19.4066C17.1833 19.7465 17.6443 19.9375 18.125 19.9375ZM23.5625 19.9375C24.0432 19.9375 24.5042 19.7465 24.8441 19.4066C25.184 19.0667 25.375 18.6057 25.375 18.125C25.375 17.6443 25.184 17.1833 24.8441 16.8434C24.5042 16.5035 24.0432 16.3125 23.5625 16.3125C23.0818 16.3125 22.6208 16.5035 22.2809 16.8434C21.941 17.1833 21.75 17.6443 21.75 18.125C21.75 18.6057 21.941 19.0667 22.2809 19.4066C22.6208 19.7465 23.0818 19.9375 23.5625 19.9375ZM7.25 25.375C7.73071 25.375 8.19172 25.184 8.53163 24.8441C8.87154 24.5042 9.0625 24.0432 9.0625 23.5625C9.0625 23.0818 8.87154 22.6208 8.53163 22.2809C8.19172 21.941 7.73071 21.75 7.25 21.75C6.7693 21.75 6.30828 21.941 5.96837 22.2809C5.62846 22.6208 5.4375 23.0818 5.4375 23.5625C5.4375 24.0432 5.62846 24.5042 5.96837 24.8441C6.30828 25.184 6.7693 25.375 7.25 25.375ZM12.6875 25.375C13.1682 25.375 13.6292 25.184 13.9691 24.8441C14.309 24.5042 14.5 24.0432 14.5 23.5625C14.5 23.0818 14.309 22.6208 13.9691 22.2809C13.6292 21.941 13.1682 21.75 12.6875 21.75C12.2068 21.75 11.7458 21.941 11.4059 22.2809C11.066 22.6208 10.875 23.0818 10.875 23.5625C10.875 24.0432 11.066 24.5042 11.4059 24.8441C11.7458 25.184 12.2068 25.375 12.6875 25.375ZM18.125 25.375C18.6057 25.375 19.0667 25.184 19.4066 24.8441C19.7465 24.5042 19.9375 24.0432 19.9375 23.5625C19.9375 23.0818 19.7465 22.6208 19.4066 22.2809C19.0667 21.941 18.6057 21.75 18.125 21.75C17.6443 21.75 17.1833 21.941 16.8434 22.2809C16.5035 22.6208 16.3125 23.0818 16.3125 23.5625C16.3125 24.0432 16.5035 24.5042 16.8434 24.8441C17.1833 25.184 17.6443 25.375 18.125 25.375Z" fill="white"/>
</svg>
