<svg width="29" height="29" viewBox="0 0 29 29" fill="none" xmlns="http://www.w3.org/2000/svg">
<rect x="1" y="8" width="27" height="20" rx="2" fill="black"/>
<path d="M6.34375 0C6.5841 0 6.81461 0.0954797 6.98457 0.265435C7.15452 0.435389 7.25 0.665898 7.25 0.90625V1.8125H21.75V0.90625C21.75 0.665898 21.8455 0.435389 22.0154 0.265435C22.1854 0.0954797 22.4159 0 22.6562 0C22.8966 0 23.1271 0.0954797 23.2971 0.265435C23.467 0.435389 23.5625 0.665898 23.5625 0.90625V1.8125H25.375C26.3364 1.8125 27.2584 2.19442 27.9383 2.87424C28.6181 3.55406 29 4.47609 29 5.4375V25.375C29 26.3364 28.6181 27.2584 27.9383 27.9383C27.2584 28.6181 26.3364 29 25.375 29H3.625C2.66359 29 1.74156 28.6181 1.06174 27.9383C0.381919 27.2584 0 26.3364 0 25.375V5.4375C0 4.47609 0.381919 3.55406 1.06174 2.87424C1.74156 2.19442 2.66359 1.8125 3.625 1.8125H5.4375V0.90625C5.4375 0.665898 5.53298 0.435389 5.70293 0.265435C5.87289 0.0954797 6.1034 0 6.34375 0ZM3.625 3.625C3.14429 3.625 2.68328 3.81596 2.34337 4.15587C2.00346 4.49578 1.8125 4.9568 1.8125 5.4375V7.25H27.1875V5.4375C27.1875 4.9568 26.9965 4.49578 26.6566 4.15587C26.3167 3.81596 25.8557 3.625 25.375 3.625H3.625ZM27.1875 9.0625H1.8125V25.375C1.8125 25.8557 2.00346 26.3167 2.34337 26.6566C2.68328 26.9965 3.14429 27.1875 3.625 27.1875H25.375C25.8557 27.1875 26.3167 26.9965 26.6566 26.6566C26.9965 26.3167 27.1875 25.8557 27.1875 25.375V9.0625Z" fill="black"/>
<path d="M14.5 20C15.163 20 15.7989 19.7366 16.2678 19.2678C16.7366 18.7989 17 18.163 17 17.5C17 16.837 16.7366 16.2011 16.2678 15.7322C15.7989 15.2634 15.163 15 14.5 15C13.837 15 13.2011 15.2634 12.7322 15.7322C12.2634 16.2011 12 16.837 12 17.5C12 18.163 12.2634 18.7989 12.7322 19.2678C13.2011 19.7366 13.837 20 14.5 20Z" fill="white"/>
</svg>
