<svg width="12" height="6" viewBox="0 0 12 6" fill="none" xmlns="http://www.w3.org/2000/svg">
<path d="M11.0691 0.157354L6.38407 4.76836C6.28185 4.86948 6.14386 4.92621 6.00007 4.92621C5.85628 4.92621 5.71829 4.86948 5.61607 4.76836L0.931069 0.158356C0.828213 0.0572801 0.689776 0.000643765 0.545569 0.000643778C0.401362 0.000643791 0.262925 0.0572801 0.160069 0.158356C0.10942 0.207733 0.0691685 0.266749 0.0416846 0.331925C0.0142007 0.397102 4.1478e-05 0.467122 4.14842e-05 0.537856C4.14903e-05 0.608591 0.0142007 0.678609 0.0416846 0.743786C0.0691686 0.808963 0.10942 0.867979 0.160069 0.917356L4.84407 5.52736C5.15259 5.83028 5.56769 6 6.00007 6C6.43245 6 6.84755 5.83028 7.15607 5.52736L11.8401 0.917355C11.8909 0.867962 11.9313 0.808885 11.9588 0.743615C11.9864 0.678346 12.0006 0.60821 12.0006 0.537354C12.0006 0.466499 11.9864 0.396364 11.9588 0.331095C11.9313 0.265825 11.8909 0.206747 11.8401 0.157354C11.7372 0.0562787 11.5988 -0.000357593 11.4546 -0.00035758C11.3104 -0.000357568 11.1719 0.0562788 11.0691 0.157354Z" fill="black"/>
</svg>
