<svg width="20" height="20" viewBox="0 0 20 20" fill="none" xmlns="http://www.w3.org/2000/svg">
<path d="M13.5538 16.3361L7.79004 10.4798C7.66363 10.352 7.59273 10.1796 7.59273 9.99981C7.59273 9.82007 7.66363 9.64759 7.79004 9.51981L13.5525 3.66356C13.6789 3.53499 13.7497 3.36195 13.7497 3.18169C13.7497 3.00143 13.6789 2.82838 13.5525 2.69981C13.4908 2.6365 13.4171 2.58619 13.3356 2.55183C13.2541 2.51748 13.1666 2.49978 13.0782 2.49978C12.9898 2.49978 12.9022 2.51748 12.8208 2.55183C12.7393 2.58619 12.6655 2.6365 12.6038 2.69981L6.84129 8.55481C6.46264 8.94047 6.25049 9.45934 6.25049 9.99981C6.25049 10.5403 6.46264 11.0592 6.84129 11.4448L12.6038 17.2998C12.6655 17.3633 12.7394 17.4138 12.821 17.4483C12.9026 17.4827 12.9902 17.5005 13.0788 17.5005C13.1674 17.5005 13.255 17.4827 13.3366 17.4483C13.4182 17.4138 13.4921 17.3633 13.5538 17.2998C13.6801 17.1712 13.7509 16.9982 13.7509 16.8179C13.7509 16.6377 13.6801 16.4646 13.5538 16.3361Z" fill="black"/>
</svg>
