<svg width="18" height="18" viewBox="0 0 18 18" fill="none" xmlns="http://www.w3.org/2000/svg">
<path d="M5.98635 0.487655C7.931 -0.179952 10.0456 -0.16159 11.9784 0.539686C13.0398 0.937042 14.0124 1.54015 14.8401 2.31437C14.5588 2.61531 14.2621 2.89656 13.9753 3.18906C13.4296 3.73375 12.8845 4.27656 12.3398 4.8175C11.7968 4.29822 11.1399 3.91299 10.4217 3.6925C9.5025 3.41496 8.52465 3.39596 7.59541 3.63757C6.66616 3.87919 5.82141 4.37209 5.15385 5.06219C4.57114 5.65497 4.12985 6.37171 3.86291 7.15891L0.947754 4.90187C1.9912 2.83266 3.79787 1.24988 5.98635 0.487655Z" fill="#E33629"/>
<path d="M0.174371 7.13782C0.331057 6.36128 0.591189 5.60927 0.947809 4.90189L3.86296 7.16454C3.48161 8.28758 3.48161 9.5051 3.86296 10.6281C2.89171 11.3781 1.92 12.1319 0.947809 12.8894C0.0550516 11.1123 -0.217224 9.08759 0.174371 7.13782Z" fill="#F8BD00"/>
<path d="M8.89442 7.22922H17.2644C17.5507 8.7999 17.4733 10.4153 17.038 11.9514C16.6376 13.364 15.8597 14.6406 14.788 15.6442C13.8472 14.9102 12.9022 14.1817 11.9615 13.4477C12.4279 13.133 12.826 12.7275 13.1319 12.2553C13.4378 11.7832 13.6452 11.2541 13.7418 10.6998H8.89442C8.89302 9.5439 8.89442 8.38656 8.89442 7.22922Z" fill="#587DBD"/>
<path d="M0.946289 12.8894C1.91848 12.1394 2.8902 11.3856 3.86145 10.6281C4.23721 11.7309 4.95186 12.6867 5.90332 13.3591C6.49677 13.7785 7.1711 14.0697 7.88332 14.2141C8.58512 14.3446 9.30496 14.3446 10.0068 14.2141C10.7065 14.0956 11.3737 13.8322 11.9657 13.4406C12.9064 14.1747 13.8514 14.9031 14.7922 15.6372C13.7627 16.5734 12.5077 17.2261 11.15 17.5314C9.65155 17.8837 8.08993 17.8668 6.59941 17.4822C5.42056 17.1674 4.31943 16.6126 3.36504 15.8524C2.35488 15.0504 1.52982 14.0397 0.946289 12.8894Z" fill="#319F43"/>
</svg>
