<svg width="34" height="34" viewBox="0 0 34 34" fill="none" xmlns="http://www.w3.org/2000/svg">
<path d="M17 17C18.6908 17 20.3123 16.3284 21.5078 15.1328C22.7034 13.9373 23.375 12.3158 23.375 10.625C23.375 8.93425 22.7034 7.31274 21.5078 6.11719C20.3123 4.92165 18.6908 4.25 17 4.25C15.3092 4.25 13.6877 4.92165 12.4922 6.11719C11.2966 7.31274 10.625 8.93425 10.625 10.625C10.625 12.3158 11.2966 13.9373 12.4922 15.1328C13.6877 16.3284 15.3092 17 17 17ZM21.25 10.625C21.25 11.7522 20.8022 12.8332 20.0052 13.6302C19.2082 14.4272 18.1272 14.875 17 14.875C15.8728 14.875 14.7918 14.4272 13.9948 13.6302C13.1978 12.8332 12.75 11.7522 12.75 10.625C12.75 9.49783 13.1978 8.41683 13.9948 7.6198C14.7918 6.82277 15.8728 6.375 17 6.375C18.1272 6.375 19.2082 6.82277 20.0052 7.6198C20.8022 8.41683 21.25 9.49783 21.25 10.625ZM29.75 27.625C29.75 29.75 27.625 29.75 27.625 29.75H6.375C6.375 29.75 4.25 29.75 4.25 27.625C4.25 25.5 6.375 19.125 17 19.125C27.625 19.125 29.75 25.5 29.75 27.625ZM27.625 27.6165C27.6229 27.0938 27.2978 25.5212 25.857 24.0805C24.4715 22.695 21.8641 21.25 17 21.25C12.1359 21.25 9.5285 22.695 8.143 24.0805C6.70225 25.5212 6.37925 27.0938 6.375 27.6165H27.625Z" fill="black"/>
</svg>
