<svg width="393" height="310" viewBox="0 0 393 310" fill="none" xmlns="http://www.w3.org/2000/svg">
<path d="M117.209 213.062C117.209 251.542 86.2404 282.736 48.0392 282.736C9.838 282.736 -21.1302 251.542 -21.1302 213.062C-21.1302 174.582 9.838 143.388 48.0392 143.388C86.2404 143.388 117.209 174.582 117.209 213.062Z" fill="black"/>
<path fill-rule="evenodd" clip-rule="evenodd" d="M48.0392 281.726C85.6758 281.726 116.199 250.991 116.199 213.062C116.199 175.133 85.6758 144.397 48.0392 144.397C10.4026 144.397 -20.1204 175.133 -20.1204 213.062C-20.1204 250.991 10.4026 281.726 48.0392 281.726ZM48.0392 282.736C86.2404 282.736 117.209 251.542 117.209 213.062C117.209 174.582 86.2404 143.388 48.0392 143.388C9.838 143.388 -21.1302 174.582 -21.1302 213.062C-21.1302 251.542 9.838 282.736 48.0392 282.736Z" fill="black"/>
<path d="M237.371 230.228C237.371 274.285 201.656 310 157.599 310C113.543 310 77.8275 274.285 77.8275 230.228C77.8275 186.171 113.543 150.456 157.599 150.456C201.656 150.456 237.371 186.171 237.371 230.228Z" fill="black"/>
<path fill-rule="evenodd" clip-rule="evenodd" d="M157.599 308.99C201.099 308.99 236.362 273.727 236.362 230.228C236.362 186.729 201.099 151.466 157.599 151.466C114.1 151.466 78.8372 186.729 78.8372 230.228C78.8372 273.727 114.1 308.99 157.599 308.99ZM157.599 310C201.656 310 237.371 274.285 237.371 230.228C237.371 186.171 201.656 150.456 157.599 150.456C113.543 150.456 77.8275 186.171 77.8275 230.228C77.8275 274.285 113.543 310 157.599 310Z" fill="black"/>
<path d="M305.026 221.645C305.026 249.25 282.648 271.629 255.042 271.629C227.437 271.629 205.059 249.25 205.059 221.645C205.059 194.04 227.437 171.661 255.042 171.661C282.648 171.661 305.026 194.04 305.026 221.645Z" fill="black"/>
<path fill-rule="evenodd" clip-rule="evenodd" d="M255.042 270.619C282.09 270.619 304.016 248.692 304.016 221.645C304.016 194.597 282.09 172.671 255.042 172.671C227.995 172.671 206.069 194.597 206.069 221.645C206.069 248.692 227.995 270.619 255.042 270.619ZM255.042 271.629C282.648 271.629 305.026 249.25 305.026 221.645C305.026 194.04 282.648 171.661 255.042 171.661C227.437 171.661 205.059 194.04 205.059 221.645C205.059 249.25 227.437 271.629 255.042 271.629Z" fill="black"/>
<path d="M419.13 171.156C419.13 214.934 383.641 250.423 339.863 250.423C296.085 250.423 260.596 214.934 260.596 171.156C260.596 127.378 296.085 91.8892 339.863 91.8892C383.641 91.8892 419.13 127.378 419.13 171.156Z" fill="black"/>
<path fill-rule="evenodd" clip-rule="evenodd" d="M339.863 249.414C383.084 249.414 418.121 214.377 418.121 171.156C418.121 127.936 383.084 92.8989 339.863 92.8989C296.643 92.8989 261.606 127.936 261.606 171.156C261.606 214.377 296.643 249.414 339.863 249.414ZM339.863 250.423C383.641 250.423 419.13 214.934 419.13 171.156C419.13 127.378 383.641 91.8892 339.863 91.8892C296.085 91.8892 260.596 127.378 260.596 171.156C260.596 214.934 296.085 250.423 339.863 250.423Z" fill="black"/>
<path d="M-2.95432 0H401.964V229.218H-2.95432V0Z" fill="black"/>
<path fill-rule="evenodd" clip-rule="evenodd" d="M400.954 1.00977H-1.94454V228.208H400.954V1.00977ZM-2.95432 0V229.218H401.964V0H-2.95432Z" fill="black"/>
</svg>
