<svg width="84" height="84" viewBox="0 0 84 84" fill="none" xmlns="http://www.w3.org/2000/svg">
<circle cx="42" cy="42" r="42" fill="#D9D9D9"/>
<path d="M42 42C44.0886 42 46.0916 41.1703 47.5685 39.6935C49.0453 38.2166 49.875 36.2136 49.875 34.125C49.875 32.0364 49.0453 30.0334 47.5685 28.5565C46.0916 27.0797 44.0886 26.25 42 26.25C39.9114 26.25 37.9084 27.0797 36.4315 28.5565C34.9547 30.0334 34.125 32.0364 34.125 34.125C34.125 36.2136 34.9547 38.2166 36.4315 39.6935C37.9084 41.1703 39.9114 42 42 42ZM47.25 34.125C47.25 35.5174 46.6969 36.8527 45.7123 37.8373C44.7277 38.8219 43.3924 39.375 42 39.375C40.6076 39.375 39.2723 38.8219 38.2877 37.8373C37.3031 36.8527 36.75 35.5174 36.75 34.125C36.75 32.7326 37.3031 31.3973 38.2877 30.4127C39.2723 29.4281 40.6076 28.875 42 28.875C43.3924 28.875 44.7277 29.4281 45.7123 30.4127C46.6969 31.3973 47.25 32.7326 47.25 34.125ZM57.75 55.125C57.75 57.75 55.125 57.75 55.125 57.75H28.875C28.875 57.75 26.25 57.75 26.25 55.125C26.25 52.5 28.875 44.625 42 44.625C55.125 44.625 57.75 52.5 57.75 55.125ZM55.125 55.1145C55.1224 54.4688 54.7208 52.5262 52.941 50.7465C51.2295 49.035 48.0086 47.25 42 47.25C35.9914 47.25 32.7705 49.035 31.059 50.7465C29.2793 52.5262 28.8803 54.4688 28.875 55.1145H55.125Z" fill="black"/>
</svg>
