<svg width="24" height="25" viewBox="0 0 24 25" fill="none" xmlns="http://www.w3.org/2000/svg">
<path d="M14.2969 0.046875L16.7454 0.063C16.7916 0.0988125 16.8289 0.12225 16.8684 0.139875C17.3123 0.3405 17.7934 0.484125 18.1933 0.75075C19.3528 1.52138 20.4851 2.33344 21.6167 3.14512C22.1426 3.52144 22.6611 3.91331 23.1459 4.3395C23.5063 4.656 23.6681 5.10506 23.6691 5.58394L23.6681 20.6535C23.6676 20.8637 23.6316 21.0799 23.5731 21.282C23.3072 22.2034 22.7175 22.8339 21.7896 23.0801C21.3002 23.2097 20.7833 23.25 20.2757 23.2918C19.4839 23.3576 18.6893 23.3899 17.896 23.4375L16.3952 23.5312L13.9922 23.6726L12.5149 23.7649L10.0885 23.9055L8.83445 23.9569C8.79414 23.9589 8.75683 24.0154 8.71876 24.0469C7.76439 24.0469 6.81076 24.0469 5.84833 24.0315C5.8022 23.9949 5.76714 23.9655 5.72608 23.9539C5.14445 23.7853 4.65676 23.4639 4.28176 22.9972C3.76239 22.3521 3.26889 21.687 2.76939 21.0264C2.15551 20.2148 1.5257 19.4151 0.945576 18.5801C0.604595 18.0923 0.421959 17.5113 0.422451 16.9161C0.420817 12.4654 0.421379 8.01469 0.424139 3.564C0.424139 3.43575 0.446639 3.30619 0.468764 3.17869C0.701639 1.80844 1.71601 1.07737 2.92239 0.941812C3.54864 0.8715 4.1792 0.84 4.80845 0.798375L6.47158 0.702375L7.18651 0.6555L9.34276 0.4695L10.5381 0.37575L12.5179 0.235125L14.181 0.136875C14.2215 0.134063 14.2588 0.078375 14.2969 0.046875ZM4.8647 21.4095C4.96445 21.5391 5.07564 21.6621 5.16283 21.7999C5.58545 22.4612 6.19126 22.7014 6.96095 22.6502L12.1751 22.3397L18.0431 21.9851L20.9648 21.7969C21.8306 21.7273 22.2488 21.2593 22.2656 20.3906V20.2031L22.2722 5.97881C22.2729 5.55037 22.125 5.25075 21.7823 5.01131L17.6528 2.10131C16.9884 1.61794 16.2833 1.39237 15.4665 1.45687L10.842 1.79887L6.00658 2.1555L2.97151 2.39213C2.35839 2.44837 1.97833 2.82338 1.86845 3.42488C1.84174 3.57842 1.82875 3.73403 1.82964 3.88987L1.81708 16.3102C1.81276 17.124 2.06176 17.8009 2.54889 18.4234L4.8647 21.4095Z" fill="white"/>
<path d="M4.85382 21.3969L2.54888 18.4232C2.06176 17.8007 1.81276 17.124 1.81707 16.3102L1.82963 3.88985C1.82963 3.7346 1.84126 3.5771 1.86845 3.42485C1.97832 2.82353 2.35838 2.44853 2.97151 2.3921L6.00657 2.15547L10.8422 1.79885L15.4665 1.45685C16.2833 1.39235 16.9884 1.61791 17.6528 2.10128C19.0144 3.09222 20.4015 4.0481 21.7823 5.01128C22.125 5.25072 22.2729 5.55035 22.2722 5.97878L22.2656 20.2038V20.3913C22.2488 21.2593 21.8306 21.7273 20.9648 21.7968C19.9922 21.8752 19.0174 21.9258 18.0431 21.9851L12.1751 22.3395L6.96095 22.6502C6.19126 22.7013 5.58545 22.4612 5.16282 21.7998C5.07563 21.662 4.96445 21.539 4.85382 21.3969ZM6.05495 12.7734V19.0524L6.05645 20.2235C6.06657 20.7487 6.32382 21.0103 6.84882 21.0403C6.98063 21.0476 7.11395 21.0431 7.24651 21.035L11.6419 20.7759L20.0353 20.2961C20.5584 20.2668 20.8001 20.0375 20.8491 19.5191C20.8586 19.4259 20.8556 19.3316 20.8556 19.2378L20.8564 7.14841C20.8564 7.0781 20.8586 7.00778 20.8543 6.93747C20.8228 6.45635 20.6162 6.26003 20.1381 6.28553L15.8123 6.53472C13.7861 6.6526 11.76 6.77122 9.73388 6.8906L6.69507 7.07303C6.3077 7.09778 6.13257 7.26485 6.07407 7.6436C6.06022 7.74404 6.05408 7.8454 6.0557 7.94678L6.05495 12.7734ZM16.7747 2.8871C16.4078 2.68797 16.0093 2.62197 15.5991 2.64466C14.9685 2.67916 14.3379 2.7311 13.7072 2.77666L4.71676 3.42991C4.44507 3.4496 4.17188 3.46928 3.90376 3.51785C3.81376 3.53397 3.70013 3.62472 3.67238 3.70685C3.65176 3.7646 3.7427 3.88122 3.80926 3.94497C3.93245 4.06272 4.07438 4.16153 4.20863 4.26785C4.5272 4.5191 4.8662 4.74822 5.15851 5.02591C5.71295 5.55241 6.35813 5.6741 7.09726 5.62066L12.9163 5.25578L19.1807 4.88003C19.2379 4.87722 19.2951 4.8596 19.4209 4.83616C19.3059 4.71672 19.2392 4.62522 19.1522 4.56072C18.8453 4.33406 18.5355 4.11142 18.2228 3.89285C17.7423 3.55435 17.2596 3.21909 16.7747 2.8871Z" fill="black"/>
<path d="M6.05495 12.7499L6.0557 7.94671C6.0557 7.84546 6.0587 7.74308 6.07407 7.64352C6.13257 7.26477 6.3077 7.0979 6.69507 7.07296L9.73389 6.89052L15.8123 6.53465L20.1379 6.28546C20.6162 6.25996 20.8228 6.45683 20.8541 6.9374C20.8586 7.00771 20.8564 7.07802 20.8564 7.14833L20.8556 19.2378L20.8491 19.519C20.8001 20.0375 20.5584 20.2668 20.0353 20.296L11.6419 20.7758L7.24651 21.035L6.84901 21.0402C6.32382 21.0102 6.06657 20.7486 6.05645 20.2242L6.05495 19.0523V12.7499ZM14.6361 12.7623L12.2233 9.08633C12.1391 8.95808 12.0564 8.91571 11.9012 8.93258L10.8728 9.00196L8.98088 9.14052C8.51588 9.18308 8.23463 9.62033 8.36345 10.0737L9.36545 10.1594V18.2768L8.68295 18.4694C8.38032 18.5586 8.25076 18.8136 8.35257 19.1395L10.6603 19.007L11.5693 18.9323C11.9612 18.8678 12.1721 18.6276 12.2248 18.2358L10.9629 17.948V11.8424L11.0567 11.9736L13.9569 16.5021C14.3833 17.1635 14.8211 17.8173 15.2702 18.4634C15.5903 18.9228 16.062 19.0634 16.5923 18.949C16.9241 18.8781 17.2427 18.7433 17.5678 18.6385C17.7371 18.5836 17.7949 18.4825 17.7941 18.2928L17.7885 9.94902C17.7885 9.46133 17.7885 9.46133 18.2709 9.36402C18.7588 9.26577 18.8811 9.07096 18.7697 8.54952L15.8541 8.72671C15.5368 8.7494 15.2966 9.01452 15.2484 9.32296C15.2248 9.47165 15.2556 9.55358 15.4335 9.5639L16.3163 9.6614V15.32C15.7571 14.467 15.1971 13.6147 14.6361 12.763V12.7623ZM16.7906 2.89508C17.2693 3.2256 17.7465 3.55811 18.2224 3.89258C18.5352 4.11122 18.8451 4.33393 19.152 4.56065C19.239 4.62515 19.3058 4.71665 19.4207 4.83608L19.1805 4.87996L12.9161 5.25571L7.09707 5.62058C6.35795 5.67402 5.71276 5.55233 5.15832 5.02583C4.86601 4.74833 4.52701 4.51902 4.20826 4.26777C4.0742 4.16146 3.93226 4.06265 3.80907 3.94471C3.74251 3.88096 3.65157 3.76471 3.6722 3.70658C3.69995 3.62465 3.81432 3.5339 3.90357 3.51777C4.1717 3.4694 4.44489 3.44952 4.71657 3.42983L13.7072 2.77658L15.5991 2.64458C16.0091 2.62208 16.4076 2.68771 16.7906 2.89508Z" fill="white"/>
<path d="M14.6462 12.7762L16.3162 15.32V9.66125L15.4337 9.56375C15.2555 9.55362 15.2248 9.47169 15.2482 9.323C15.2966 9.01456 15.537 8.74944 15.8539 8.72675L18.7697 8.54956C18.881 9.07081 18.7588 9.26581 18.2709 9.36387C17.7883 9.46062 17.7883 9.46062 17.7883 9.94906L17.7941 18.2928C17.7949 18.4826 17.7371 18.5836 17.5678 18.6386L16.5922 18.9491C16.062 19.0627 15.5902 18.9228 15.2704 18.4634C14.8214 17.8172 14.3836 17.1634 13.9571 16.5022L11.0565 11.9735C11.036 11.9412 11.0126 11.9112 10.9627 11.8424V17.948L12.2248 18.2358C12.1721 18.6277 11.9612 18.8677 11.5693 18.9324C11.2704 18.9813 10.9637 18.9886 10.6603 19.007L8.35255 19.1396C8.25073 18.8137 8.3803 18.5587 8.68292 18.4694L9.36542 18.2769V10.1594L8.36342 10.0737C8.23461 9.62037 8.51586 9.18312 8.98086 9.14056C9.61011 9.08187 10.2422 9.04606 10.8727 9.00219C11.2155 8.97875 11.5597 8.96994 11.9012 8.93262C12.0564 8.91575 12.1393 8.95812 12.2233 9.08637L14.6462 12.7762Z" fill="black"/>
</svg>
