<svg width="16" height="14" viewBox="0 0 16 14" fill="none" xmlns="http://www.w3.org/2000/svg">
    <path d="M5.387 10.64L5.699 10.592L5.291 10.448L5.603 10.4L5.171 10.28L5.531 10.232L5.075 10.112L5.411 10.064L4.955 9.992L5.339 9.92L4.955 9.872L5.267 9.8L4.931 9.776L5.171 9.704H4.907L5.171 9.608L5.027 9.632L5.003 9.68V9.632L4.955 9.656V9.632V9.656L4.907 9.68L4.931 9.632L4.883 9.656L4.955 9.632V9.608V9.224L4.811 9.632L4.787 9.152L4.643 9.608L4.619 9.128L4.475 9.584L4.427 9.128L4.307 9.56L4.259 9.104L4.139 9.536L4.091 9.08L3.947 9.536L3.899 9.056L3.755 9.512L3.707 9.032L3.563 9.488L3.515 9.008L3.347 9.488L3.323 8.984L3.131 9.464V8.936L2.915 9.416L2.939 8.84L2.603 9.368L2.675 8.768L2.291 9.272L2.411 8.72L2.003 9.176L2.195 8.528L1.643 8.984L1.979 8.384L1.331 8.672L1.715 8.264L1.139 8.432L1.667 8L0.947 8.072L1.571 7.76L0.827 7.616L1.355 7.448L0.755 7.376L1.307 7.232L0.731 7.112L1.283 6.992L0.707 6.872L1.259 6.776L0.707 6.632L1.235 6.584L0.731 6.416L1.259 6.392L0.755 6.176H1.331L0.803 5.936L1.331 5.984L0.875 5.696L1.427 5.792L0.971 5.456L1.595 5.6L1.139 5.096L1.763 5.36L1.403 4.76L1.907 5.144L1.715 4.52L2.123 4.952L2.027 4.352L2.339 4.832L2.315 4.232L2.555 4.736L2.603 4.184L2.771 4.664L2.867 4.136L2.987 4.592L3.107 4.136L3.203 4.568L3.323 4.136L3.395 4.544L3.539 4.136L3.587 4.52L3.731 4.136L3.779 4.52L3.899 4.136L3.971 4.52L4.091 4.16L4.139 4.52L4.259 4.16L4.307 4.52L4.427 4.16L4.499 4.52L4.595 4.16L4.667 4.496L4.763 4.184L4.835 4.52L4.931 4.184L5.003 4.472L5.075 4.16L5.147 4.4L5.171 4.16L5.195 4.184L5.267 4.28L5.219 4.16L5.483 4.352L5.411 4.16L5.339 4.088L5.387 4.112L5.363 4.064L5.483 4.112L5.651 4.136L5.387 3.92L5.675 3.944L5.435 3.776H5.723L5.483 3.608L5.747 3.584L5.507 3.44L5.771 3.416L5.531 3.272L5.795 3.224L5.531 3.104L5.819 3.056L5.555 2.936L5.819 2.888L5.579 2.744L5.843 2.696L5.603 2.576L5.843 2.504L5.603 2.384L5.867 2.336L5.627 2.192L5.891 2.144L5.651 1.976L5.915 1.928L5.675 1.76L5.939 1.736L5.723 1.52H6.011L5.819 1.256L6.083 1.304L5.939 1.04L6.155 1.112L6.035 0.896L6.323 0.991999L6.227 0.631999L6.491 0.8L6.515 0.464L6.707 0.68L6.851 0.295999L7.019 0.511999L7.139 0.248L7.235 0.44L7.355 0.224L7.427 0.415999L7.571 0.224L7.619 0.415999L7.763 0.224L7.811 0.415999L7.955 0.224L8.003 0.415999L8.147 0.248L8.195 0.44L8.363 0.271999L8.411 0.464L8.603 0.295999L8.627 0.487999L8.819 0.344L8.843 0.511999L9.035 0.391999L9.059 0.607999L9.371 0.487999L9.347 0.704L9.587 0.655999L9.515 0.871999L9.875 0.896L9.779 1.088L9.995 1.184L9.875 1.28L10.067 1.376L9.947 1.496L10.115 1.616L9.995 1.688L10.139 1.832L10.019 1.904L10.163 2.024L10.043 2.096L10.163 2.216L10.043 2.264L10.163 2.408L10.043 2.456L10.163 2.576L10.043 2.624L10.163 2.768L10.043 2.816L10.163 2.936L10.043 2.984L10.163 3.104L10.043 3.176L10.163 3.296L10.067 3.344L10.163 3.464L10.067 3.512L10.187 3.632L10.091 3.68L10.211 3.8L10.091 3.872L10.235 3.992L10.139 4.064L10.307 4.16L10.187 4.256L10.379 4.328L10.307 4.4L10.403 4.424L10.355 4.496L10.523 4.472L10.475 4.64L10.691 4.592L10.667 4.712L10.859 4.592L10.883 4.76L11.051 4.616L11.075 4.784L11.243 4.616L11.267 4.784L11.435 4.592L11.483 4.784L11.627 4.568L11.675 4.76L11.795 4.544L11.843 4.736L11.987 4.52L12.035 4.736L12.155 4.496L12.227 4.712L12.371 4.472L12.419 4.712L12.563 4.448L12.611 4.688L12.755 4.424L12.803 4.712L12.971 4.424L12.995 4.712L13.211 4.424V4.736L13.427 4.448L13.403 4.88L13.859 4.544L13.763 5L14.219 4.736L14.051 5.024L14.363 4.856L14.099 5.24L14.651 5.12L14.267 5.48L14.867 5.528L14.459 5.72L14.963 5.792L14.555 5.96L15.059 6.056L14.603 6.2L15.107 6.32L14.675 6.416L15.131 6.56L14.699 6.632L15.131 6.776L14.723 6.824L15.155 6.968L14.699 7.016L15.155 7.184L14.651 7.232L15.131 7.448H14.603L15.083 7.736L14.507 7.664L14.987 8.072L14.435 7.904L14.819 8.36L14.315 8.12L14.627 8.624L14.171 8.312L14.411 8.816L14.003 8.48L14.171 9.008L13.811 8.6L13.907 9.128L13.571 8.648L13.547 9.248L13.331 8.696L13.139 9.296L13.019 8.864L12.899 9.32L12.803 8.888L12.683 9.32L12.611 8.912L12.467 9.296L12.419 8.912L12.275 9.272L12.227 8.912L12.083 9.272L12.035 8.912L11.891 9.248L11.843 8.912L11.723 9.224L11.675 8.888L11.555 9.2L11.483 8.888L11.387 9.2L11.315 8.888L11.195 9.2L11.147 8.888L11.027 9.176L11.003 9.056L10.979 9.152L10.811 8.84L10.739 9.248L10.691 9.152L10.595 9.08L10.667 9.272L10.427 9.152L10.571 9.392H10.523L10.547 9.416L10.355 9.392L10.523 9.512L10.307 9.536L10.499 9.656L10.259 9.68L10.475 9.8L10.235 9.848L10.475 9.992L10.235 10.04L10.475 10.16L10.235 10.208L10.475 10.328L10.235 10.376L10.475 10.52L10.235 10.568L10.475 10.688L10.235 10.736L10.475 10.88L10.235 10.928L10.475 11.072L10.235 11.12L10.475 11.24L10.235 11.288L10.499 11.456L10.235 11.48L10.475 11.648L10.235 11.672L10.475 11.816L10.187 11.864L10.475 12.032L10.091 12.056L10.427 12.392L10.019 12.296L10.259 12.752L9.875 12.632L10.115 13.04L9.707 12.8L9.779 13.328L9.515 13.016L9.491 13.496L9.275 13.136L9.203 13.592L9.059 13.232L8.963 13.688L8.843 13.328L8.723 13.736L8.627 13.376L8.531 13.784L8.435 13.4L8.315 13.808L8.243 13.424L8.099 13.832L8.051 13.448L7.907 13.856L7.859 13.448L7.691 13.856L7.667 13.448L7.499 13.856L7.475 13.448L7.283 13.856V13.424L7.091 13.832V13.256L6.707 13.784L6.779 13.184L6.323 13.616L6.491 13.232L6.179 13.496L6.395 12.944L5.819 13.256L6.203 12.728L5.555 12.824L5.915 12.584H5.483L5.867 12.392L5.411 12.368L5.843 12.176L5.387 12.104L5.795 11.96L5.363 11.864L5.747 11.768L5.387 11.648L5.747 11.576L5.411 11.432L5.747 11.384L5.435 11.24L5.747 11.192L5.459 11.072L5.771 11.024L5.483 10.904L5.651 10.88L5.507 10.832L5.771 10.784L5.387 10.64Z" fill="black"/>
</svg>
