<svg width="103" height="102" viewBox="0 0 103 102" fill="none" xmlns="http://www.w3.org/2000/svg">
<circle cx="51" cy="51" r="51" fill="#D9D9D9"/>
<path d="M51 51C53.5859 51 56.0658 49.9728 57.8943 48.1443C59.7228 46.3158 60.75 43.8359 60.75 41.25C60.75 38.6641 59.7228 36.1842 57.8943 34.3557C56.0658 32.5272 53.5859 31.5 51 31.5C48.4141 31.5 45.9342 32.5272 44.1057 34.3557C42.2772 36.1842 41.25 38.6641 41.25 41.25C41.25 43.8359 42.2772 46.3158 44.1057 48.1443C45.9342 49.9728 48.4141 51 51 51ZM57.5 41.25C57.5 42.9739 56.8152 44.6272 55.5962 45.8462C54.3772 47.0652 52.7239 47.75 51 47.75C49.2761 47.75 47.6228 47.0652 46.4038 45.8462C45.1848 44.6272 44.5 42.9739 44.5 41.25C44.5 39.5261 45.1848 37.8728 46.4038 36.6538C47.6228 35.4348 49.2761 34.75 51 34.75C52.7239 34.75 54.3772 35.4348 55.5962 36.6538C56.8152 37.8728 57.5 39.5261 57.5 41.25ZM70.5 67.25C70.5 70.5 67.25 70.5 67.25 70.5H34.75C34.75 70.5 31.5 70.5 31.5 67.25C31.5 64 34.75 54.25 51 54.25C67.25 54.25 70.5 64 70.5 67.25ZM67.25 67.237C67.2467 66.4375 66.7495 64.0325 64.546 61.829C62.427 59.71 58.4393 57.5 51 57.5C43.5608 57.5 39.573 59.71 37.454 61.829C35.2505 64.0325 34.7565 66.4375 34.75 67.237H67.25Z" fill="black"/>
<circle cx="90" cy="89" r="13" fill="white"/>
<path d="M90.4999 83.8604H89.5001C89.1028 83.8604 88.9039 83.8604 88.7237 83.9152C88.5638 83.9636 88.4151 84.0435 88.2862 84.1491C88.1403 84.2687 88.0307 84.4344 87.8102 84.7651L87.1434 85.7649C86.2544 85.7649 85.8099 85.7649 85.4704 85.9376C85.1719 86.09 84.9293 86.333 84.7774 86.6318C84.6042 86.9707 84.6042 87.4152 84.6042 88.3042V91.6006C84.6042 92.4896 84.6042 92.9341 84.7774 93.2736C84.9291 93.5723 85.1723 93.8149 85.4704 93.9672C85.8099 94.1399 86.2544 94.1399 87.1434 94.1399H92.8566C93.7456 94.1399 94.1901 94.1399 94.5296 93.9672C94.8281 93.8148 95.0707 93.5718 95.2226 93.273C95.3958 92.9341 95.3958 92.4896 95.3958 91.6006V88.3042C95.3958 87.4152 95.3958 86.9707 95.2226 86.6312C95.0706 86.3326 94.828 86.0898 94.5296 85.9376C94.1901 85.7649 93.7456 85.7649 92.8566 85.7649L92.1898 84.7651C91.9693 84.4344 91.8591 84.2693 91.7138 84.1491C91.5846 84.0434 91.436 83.964 91.2763 83.9152C91.0961 83.8604 90.8972 83.8604 90.4999 83.8604Z" stroke="#959595" stroke-width="1.5" stroke-linecap="round" stroke-linejoin="round"/>
<path d="M92.2021 89.7072C92.2021 89.9964 92.1451 90.2827 92.0345 90.5499C91.9238 90.8171 91.7616 91.0598 91.5571 91.2643C91.3526 91.4688 91.1099 91.631 90.8427 91.7417C90.5755 91.8523 90.2892 91.9093 90 91.9093C89.7108 91.9093 89.4245 91.8523 89.1573 91.7417C88.8901 91.631 88.6474 91.4688 88.4429 91.2643C88.2384 91.0598 88.0762 90.8171 87.9655 90.5499C87.8549 90.2827 87.7979 89.9964 87.7979 89.7072C87.7979 89.1232 88.0299 88.5631 88.4429 88.1501C88.8559 87.7371 89.416 87.5051 90 87.5051C90.584 87.5051 91.1441 87.7371 91.5571 88.1501C91.9701 88.5631 92.2021 89.1232 92.2021 89.7072Z" stroke="#959595" stroke-width="1.5" stroke-linecap="round" stroke-linejoin="round"/>
</svg>
