<svg width="16" height="16" viewBox="0 0 16 16" fill="none" xmlns="http://www.w3.org/2000/svg">
<path d="M5.15711 2.93105L9.76811 7.61605C9.86924 7.71827 9.92596 7.85626 9.92596 8.00005C9.92596 8.14384 9.86924 8.28183 9.76811 8.38405L5.15811 13.0691C5.05704 13.1719 5.0004 13.3103 5.0004 13.4546C5.0004 13.5988 5.05704 13.7372 5.15811 13.8401C5.20749 13.8907 5.2665 13.931 5.33168 13.9584C5.39686 13.9859 5.46688 14.0001 5.53761 14.0001C5.60835 14.0001 5.67836 13.9859 5.74354 13.9584C5.80872 13.931 5.86773 13.8907 5.91711 13.8401L10.5271 9.15605C10.83 8.84753 10.9998 8.43243 10.9998 8.00005C10.9998 7.56768 10.83 7.15257 10.5271 6.84405L5.91711 2.16005C5.86772 2.10925 5.80864 2.06887 5.74337 2.04129C5.6781 2.01372 5.60797 1.99951 5.53711 1.99951C5.46626 1.99951 5.39612 2.01372 5.33085 2.04129C5.26558 2.06887 5.2065 2.10925 5.15711 2.16005C5.05604 2.26291 4.9994 2.40135 4.9994 2.54555C4.9994 2.68976 5.05604 2.8282 5.15711 2.93105Z" fill="black"/>
</svg>
