<svg width="12" height="3" viewBox="0 0 12 3" fill="none" xmlns="http://www.w3.org/2000/svg">
<path d="M1.048 2.096C0.488 2.096 0.024 1.632 0.024 1.072C0.024 0.528 0.488 0.0799999 1.048 0.0799999C1.592 0.0799999 2.04 0.528 2.04 1.072C2.04 1.632 1.592 2.096 1.048 2.096ZM5.6105 2.096C5.0505 2.096 4.5865 1.632 4.5865 1.072C4.5865 0.528 5.0505 0.0799999 5.6105 0.0799999C6.1545 0.0799999 6.6025 0.528 6.6025 1.072C6.6025 1.632 6.1545 2.096 5.6105 2.096ZM10.173 2.096C9.613 2.096 9.149 1.632 9.149 1.072C9.149 0.528 9.613 0.0799999 10.173 0.0799999C10.717 0.0799999 11.165 0.528 11.165 1.072C11.165 1.632 10.717 2.096 10.173 2.096Z" fill="black"/>
</svg>
