<svg width="25" height="29" viewBox="0 0 25 29" fill="none" xmlns="http://www.w3.org/2000/svg">
<path d="M15.2734 28.3438C14.5312 28.5521 13.8672 28.6888 13.2812 28.7539C12.6953 28.806 12.2656 28.832 11.9922 28.832C11.7188 28.832 11.2956 28.793 10.7227 28.7148C10.1497 28.6367 9.52474 28.487 8.84766 28.2656C8.17057 28.0312 7.48047 27.6992 6.77734 27.2695C6.07422 26.8268 5.4362 26.2474 4.86328 25.5312C3.5612 23.9297 2.91016 21.8333 2.91016 19.2422C2.91016 16.7682 3.73047 14.5742 5.37109 12.6602C6.86849 10.8893 8.52214 9.85417 10.332 9.55469C11.4779 9.20312 12.8255 9.14453 14.375 9.37891C15.8594 9.61328 17.2331 10.1927 18.4961 11.1172C19.9414 12.1589 20.9701 13.7344 21.582 15.8438C21.8945 16.9505 22.0508 18.2266 22.0508 19.6719C22.0508 21.1172 21.8359 22.3411 21.4062 23.3438C20.9766 24.3333 20.4297 25.1667 19.7656 25.8438C19.1016 26.5078 18.3724 27.0417 17.5781 27.4453C16.7839 27.8359 16.0156 28.1354 15.2734 28.3438ZM9.35547 26.4492C9.88932 26.6576 10.3971 26.8073 10.8789 26.8984C11.3607 26.9766 11.7318 27.0156 11.9922 27.0156C12.2526 27.0156 12.6172 26.9896 13.0859 26.9375C13.5677 26.8854 14.1016 26.7747 14.6875 26.6055C15.2865 26.4362 15.9049 26.1953 16.543 25.8828C17.194 25.5573 17.7865 25.1211 18.3203 24.5742C19.5443 23.3242 20.1562 21.6836 20.1562 19.6523C20.1562 15.4987 18.6654 12.8359 15.6836 11.6641C13.4049 10.7786 11.0742 10.9674 8.69141 12.2305C8.36589 12.3997 8.07943 12.543 7.83203 12.6602C6.90755 13.2982 6.16536 14.3008 5.60547 15.668C5.1237 16.8398 4.88281 18.0052 4.88281 19.1641C4.88281 20.3099 5.01302 21.2865 5.27344 22.0938C5.54688 22.888 5.89193 23.5716 6.30859 24.1445C6.73828 24.7174 7.22005 25.1927 7.75391 25.5703C8.28776 25.9349 8.82161 26.2279 9.35547 26.4492Z" fill="#A8A8A8"/>
<circle cx="10" cy="16" r="1" fill="#A8A8A8"/>
<circle cx="10" cy="16" r="1" fill="#A8A8A8"/>
<circle cx="14" cy="16" r="1" fill="#A8A8A8"/>
<circle cx="14" cy="16" r="1" fill="#A8A8A8"/>
<path d="M14 23.2241L16.9746 22" stroke="#A8A8A8" stroke-linecap="round"/>
</svg>
