<svg width="15" height="4" viewBox="0 0 15 4" fill="none" xmlns="http://www.w3.org/2000/svg">
<path d="M1.66016 3.26172C0.742188 3.26172 0 2.51953 0.0195312 1.62109C0 0.722656 0.742188 0 1.66016 0C2.51953 0 3.28125 0.722656 3.28125 1.62109C3.28125 2.51953 2.51953 3.26172 1.66016 3.26172ZM7.30469 3.26172C6.38672 3.26172 5.64453 2.51953 5.66406 1.62109C5.64453 0.722656 6.38672 0 7.30469 0C8.16406 0 8.92578 0.722656 8.92578 1.62109C8.92578 2.51953 8.16406 3.26172 7.30469 3.26172ZM12.9492 3.26172C12.0312 3.26172 11.2891 2.51953 11.3086 1.62109C11.2891 0.722656 12.0312 0 12.9492 0C13.8086 0 14.5703 0.722656 14.5703 1.62109C14.5703 2.51953 13.8086 3.26172 12.9492 3.26172Z" fill="black"/>
</svg>
